<?xml version="1.0" standalone="no"?>
<!DOCTYPE svg PUBLIC "-//W3C//DTD SVG 20010904//EN"
 "http://www.w3.org/TR/2001/REC-SVG-20010904/DTD/svg10.dtd">
<svg version="1.0" xmlns="http://www.w3.org/2000/svg"
 width="483.000000pt" height="483.000000pt" viewBox="0 0 483.000000 483.000000"
 preserveAspectRatio="xMidYMid meet">
<metadata>
Created by potrace 1.11, written by Peter Selinger 2001-2013
</metadata>
<g transform="translate(0.000000,483.000000) scale(0.100000,-0.100000)"
fill="#000000" stroke="none">
<path d="M2091 4677 c-14 -36 -48 -157 -60 -212 -6 -27 -18 -75 -26 -105 -60
-217 -83 -436 -65 -627 7 -65 14 -143 17 -173 l5 -55 -29 45 c-15 25 -34 57
-42 72 -8 15 -22 37 -33 47 -10 11 -18 25 -18 31 0 15 -121 170 -179 229 -25
25 -91 86 -146 134 -84 74 -122 99 -240 158 -134 66 -144 69 -211 69 -48 0
-75 -4 -83 -14 -14 -17 -6 -156 16 -271 50 -266 115 -432 277 -707 15 -27 25
-48 23 -48 -3 0 -50 21 -104 46 -132 62 -178 80 -302 115 -107 31 -228 41
-486 43 -74 1 -80 -1 -83 -20 -3 -20 82 -137 114 -156 6 -4 51 -54 100 -110
49 -57 95 -110 103 -118 13 -13 -12 -16 -223 -22 -138 -4 -244 -12 -251 -18
-22 -18 -4 -59 50 -116 44 -45 133 -114 149 -114 6 0 107 -68 136 -91 14 -11
49 -36 79 -54 33 -21 49 -36 40 -39 -35 -10 -110 -27 -180 -40 -42 -8 -105
-28 -140 -44 -76 -34 -289 -179 -289 -196 0 -20 63 -74 110 -94 25 -11 65 -28
90 -39 25 -12 70 -31 100 -43 30 -12 74 -31 97 -41 23 -11 46 -19 50 -19 5 0
44 -14 88 -31 177 -68 460 -101 699 -80 76 6 140 10 142 8 3 -2 -53 -28 -123
-57 -169 -71 -390 -184 -488 -250 -103 -68 -216 -182 -289 -293 -63 -95 -77
-127 -97 -225 l-13 -62 38 -38 39 -37 176 0 c193 1 223 6 452 74 202 60 283
96 482 216 40 24 73 40 75 36 2 -5 -20 -48 -49 -97 -28 -48 -65 -117 -81 -153
-16 -36 -38 -85 -49 -109 -64 -141 -93 -294 -91 -494 1 -178 15 -251 58 -297
30 -33 35 -35 89 -33 58 2 130 32 191 78 38 29 68 30 96 4 51 -48 124 -30 178
42 28 38 29 39 76 97 19 24 42 57 49 72 8 15 18 29 23 31 4 1 23 41 42 87 l33
83 18 -23 c10 -13 19 -28 19 -32 0 -4 17 -34 39 -65 21 -31 41 -68 46 -80 16
-51 57 -131 80 -156 13 -14 35 -26 47 -26 46 0 146 116 210 244 63 124 51 124
181 -1 62 -59 127 -115 143 -123 16 -8 43 -24 59 -36 78 -55 141 -68 173 -36
77 77 117 196 128 385 5 75 11 107 19 107 7 0 32 -9 56 -20 125 -56 176 8 126
160 -14 43 -44 107 -66 144 -23 36 -41 71 -41 76 0 5 -9 26 -21 46 -35 62 -23
68 61 28 91 -44 311 -117 400 -133 154 -27 368 -50 412 -45 84 11 93 29 64
140 -23 88 -37 117 -115 234 -52 80 -66 108 -58 117 11 10 223 44 362 58 146
14 225 38 245 75 8 16 4 26 -21 55 -18 20 -53 50 -78 67 -25 18 -48 34 -51 37
-3 3 -25 19 -50 35 -25 16 -57 37 -71 47 -68 46 -309 152 -420 185 -26 8 -51
19 -54 24 -3 5 -27 19 -53 31 -29 13 -41 23 -32 26 103 34 255 106 340 162 30
20 60 38 65 41 90 45 285 205 285 233 0 62 -252 204 -393 221 -27 3 -52 8 -57
11 -4 3 43 56 104 118 168 168 277 325 292 419 5 30 1 40 -27 71 -58 61 -184
92 -344 84 l-111 -6 -18 33 c-10 19 -30 40 -44 47 -15 8 -33 20 -40 27 -13 12
-38 16 -77 13 -47 -4 -207 -65 -278 -105 -103 -59 -110 -61 -101 -33 3 12 10
27 14 32 4 6 24 51 42 100 59 154 94 342 90 480 -1 50 -3 104 -4 120 0 17 1
49 3 72 3 37 -1 46 -33 78 -35 36 -37 36 -79 25 -127 -34 -359 -219 -460 -367
-27 -40 -53 -73 -57 -73 -4 0 -14 51 -21 113 -7 61 -19 139 -26 172 -8 33 -21
98 -30 145 -8 47 -18 95 -20 108 -8 34 -74 102 -100 102 -79 0 -235 -222 -326
-463 l-33 -87 -13 31 c-7 17 -13 36 -13 41 0 15 -145 303 -160 318 -3 3 -12
18 -20 34 -8 17 -49 65 -91 108 -81 83 -112 97 -128 55z m146 -1019 c-3 -8 -6
-5 -6 6 -1 11 2 17 5 13 3 -3 4 -12 1 -19z m8 -28 c3 -5 1 -10 -4 -10 -6 0
-11 5 -11 10 0 6 2 10 4 10 3 0 8 -4 11 -10z m2 -52 c-3 -7 -5 -2 -5 12 0 14
2 19 5 13 2 -7 2 -19 0 -25z m43 -202 c0 -2 -3 -11 -6 -20 -9 -23 -24 -20 -24
4 0 11 7 20 15 20 8 0 15 -2 15 -4z m-987 -476 c14 -11 31 -20 37 -20 18 0
180 -81 180 -90 0 -4 10 -11 23 -15 39 -14 51 -19 94 -45 24 -14 43 -31 43
-37 0 -17 -6 -16 -68 7 -29 11 -61 20 -72 20 -11 0 -20 5 -20 10 0 6 -6 10
-13 10 -8 0 -52 25 -98 55 -46 30 -89 55 -95 55 -6 0 -29 16 -50 35 -37 34
-37 35 -12 35 14 0 37 -9 51 -20z m134 -176 c-3 -3 -12 -4 -19 -1 -8 3 -5 6 6
6 11 1 17 -2 13 -5z m223 -54 l25 -8 -25 0 c-14 0 -34 3 -45 8 l-20 9 20 -1
c11 0 31 -4 45 -8z m67 -389 c1 -1 0 -8 -3 -16 -8 -19 -147 -21 -191 -4 l-28
12 25 8 c19 5 183 6 197 0z m-233 -10 c8 -12 -42 -20 -84 -13 l-35 7 40 6 c62
10 73 10 79 0z m297 -450 c-7 -5 -11 -13 -8 -18 6 -10 -26 -43 -41 -43 -5 0
-19 -11 -32 -25 -13 -14 -27 -25 -32 -25 -9 0 -68 -39 -78 -51 -6 -7 -67 -39
-75 -39 -3 0 -5 7 -5 15 0 8 7 15 15 15 9 0 18 7 21 15 4 8 15 15 25 15 12 0
19 7 19 18 0 18 65 60 84 54 6 -2 8 0 3 4 -7 8 89 73 108 74 6 0 4 -4 -4 -9z
m-276 -218 c-11 -3 -31 -16 -44 -29 -25 -25 -51 -32 -51 -13 0 26 39 48 85 47
21 0 24 -2 10 -5z m922 -130 c-3 -10 -5 -2 -5 17 0 19 2 27 5 18 2 -10 2 -26
0 -35z m15 -80 c5 -7 7 -17 3 -23 -3 -5 -1 -10 4 -10 15 0 14 -50 -1 -51 -8 0
-9 -2 -2 -5 12 -5 7 -109 -8 -137 -20 -39 -29 -1 -27 126 1 123 8 179 17 132
2 -11 9 -25 14 -32z m-2 -424 c0 -5 -7 -9 -15 -9 -15 0 -20 12 -9 23 8 8 24
-1 24 -14z"/>
</g>
</svg>
