<?xml version="1.0" encoding="UTF-8" standalone="no"?>
<!-- Created with Inkscape (http://www.inkscape.org/) -->

<svg
   xmlns:dc="http://purl.org/dc/elements/1.1/"
   xmlns:cc="http://creativecommons.org/ns#"
   xmlns:rdf="http://www.w3.org/1999/02/22-rdf-syntax-ns#"
   xmlns:svg="http://www.w3.org/2000/svg"
   xmlns="http://www.w3.org/2000/svg"
   xmlns:sodipodi="http://sodipodi.sourceforge.net/DTD/sodipodi-0.dtd"
   xmlns:inkscape="http://www.inkscape.org/namespaces/inkscape"
   id="svg2"
   version="1.1"
   inkscape:version="0.91 r13725"
   width="333.29559"
   height="314.97922"
   viewBox="0 0 333.29559 314.97922"
   sodipodi:docname="om-symbol.svg">
  <metadata
     id="metadata8">
    <rdf:RDF>
      <cc:Work
         rdf:about="">
        <dc:format>image/svg+xml</dc:format>
        <dc:type
           rdf:resource="http://purl.org/dc/dcmitype/StillImage" />
        <dc:title></dc:title>
      </cc:Work>
    </rdf:RDF>
  </metadata>
  <defs
     id="defs6" />
  <sodipodi:namedview
     pagecolor="#ffffff"
     bordercolor="#666666"
     borderopacity="1"
     objecttolerance="10"
     gridtolerance="10"
     guidetolerance="10"
     inkscape:pageopacity="0"
     inkscape:pageshadow="2"
     inkscape:window-width="1280"
     inkscape:window-height="961"
     id="namedview4"
     showgrid="false"
     fit-margin-top="0"
     fit-margin-left="0"
     fit-margin-right="0"
     fit-margin-bottom="0"
     inkscape:zoom="0.39863014"
     inkscape:cx="-150.9454"
     inkscape:cy="155.65235"
     inkscape:window-x="-8"
     inkscape:window-y="-8"
     inkscape:window-maximized="1"
     inkscape:current-layer="svg2" />
  <path
     style="fill:#000000"
     d="M 89.434323,313.34932 C 62.577283,307.51758 41.127023,293.68891 24.353963,271.39297 7.9185334,249.54583 -0.14611657,225.05391 0.00200343,197.4373 c 0.0798,-14.88034 0.78702,-14.18627 4.46394997,4.38099 8.3511496,42.17053 26.8299996,70.06679 57.5647196,86.90152 12.13898,6.64904 30.73457,11.59848 43.576797,11.59848 8.51757,0 20.21628,-2.85039 27.61229,-6.72773 15.29473,-8.01823 23.15542,-22.99246 22.97815,-43.77227 -0.24512,-28.73323 -20.71438,-49.47263 -61.763587,-62.57871 -13.01991,-4.15696 -17.12415,-6.2938 -18.97939,-9.88144 -1.8094,-3.499 -1.89902,-5.6559 -0.41219,-9.92101 1.63894,-4.70147 5.3395,-6.07688 19.16909,-7.12473 6.722367,-0.50934 14.894157,-1.65239 18.159537,-2.54012 13.11458,-3.56533 23.88566,-11.19056 29.09665,-20.59858 2.67198,-4.82403 2.9663,-6.24841 2.9663,-14.35541 0,-7.5962 -0.38481,-9.75333 -2.46709,-13.82977 -3.09072,-6.05062 -8.6523,-11.130655 -15.9129,-14.535065 -5.14581,-2.41282 -6.67473,-2.633 -18.12001,-2.60944 -9.962547,0.0205 -14.123967,0.48954 -20.499997,2.31052 -10.04752,2.86955 -24.51423,9.700525 -30.82843,14.556755 l -4.82843,3.71353 -6.31106,-5.54081 c -3.47108,-3.04744 -8.46896,-7.494485 -11.1064,-9.882305 l -4.79535,-4.34151 6.43484,-5.14913 c 8.1487,-6.52056 21.37549,-13.14926 35.28714,-17.68442 40.193787,-13.10306 72.823677,-5.75066 89.957877,20.26996 6.30334,9.57248 8.82978,16.998675 9.4311,27.721685 0.63602,11.34188 -0.80875,18.41646 -5.77823,28.29418 -6.42088,12.76265 -17.4931,23.37364 -30.84407,29.55924 l -5.21483,2.41606 5.06294,3.11526 c 2.78462,1.71339 5.77084,3.11526 6.63606,3.11526 1.73882,0 31.14591,-6.58274 33.58034,-7.51692 1.39997,-0.53722 3.97657,-4.64198 18.42385,-29.3509 13.25683,-22.67291 33.29332,-35.53888 57.39265,-36.85338 26.91694,-1.46819 54.78009,11.61447 69.1689,32.47706 4.43358,6.42833 9.53912,17.801 12.00625,26.74414 1.86947,6.77667 2.20366,10.52312 2.18544,24.5 -0.019,14.57415 -0.32506,17.63285 -2.62224,26.20581 -10.29303,38.41313 -38.15636,65.36405 -74.17201,71.74321 -32.42689,5.74351 -62.13094,-12.0764 -65.4005,-39.23476 -0.94255,-7.82928 0.0738,-18.95781 2.17108,-23.77153 l 1.49993,-3.44273 0.10138,6 c 0.14996,8.87449 1.75986,18.61805 4.11728,24.91881 5.31385,14.20254 23.5136,25.55905 40.94449,25.54905 11.00211,-0.006 25.24704,-4.68542 36.37019,-11.94669 24.91385,-16.26393 38.62981,-41.84391 38.62981,-72.04376 0,-13.18881 -2.10108,-22.65572 -7.42994,-33.47741 -10.41857,-21.1577 -29.58885,-32.27427 -54.00968,-31.31945 -12.33279,0.48219 -18.80719,3.10594 -27.18165,11.01534 -7.42429,7.01199 -9.88259,10.73593 -18.99324,28.7717 -11.09871,21.97142 -15.65043,26.08321 -34.38549,31.06211 -4.675,1.2424 -8.67115,2.40262 -8.88034,2.57827 -0.20918,0.17565 1.43612,3.82322 3.65624,8.1057 4.61992,8.91159 5.84395,12.94841 7.25842,23.93809 1.19627,9.29431 -0.1551,23.25742 -3.22097,33.28088 -6.27855,20.52694 -21.37892,35.03238 -42.31335,40.64629 -9.6155,2.57856 -29.1882,2.79977 -39.999997,0.4521 z M 207.07865,87.219655 c -29.41751,-2.64084 -46.31427,-14.54381 -55.1973,-38.88389 -3.00511,-8.2342 -5.94703,-21.97807 -5.94703,-27.78294 0,-3.49889 0.0261,-3.52086 2.03045,-1.70699 1.11674,1.01064 4.3451,6.14289 7.17412,11.40499 11.13909,20.71918 18.07909,29.11688 27.34516,33.08878 15.47936,6.63522 49.28277,3.99118 68.95027,-5.39317 12.12239,-5.7842 21.0393,-13.50657 28.58461,-24.75533 l 2.43299,-3.62718 12.7267,7.47198 12.7267,7.47198 -4.36831,5.6552 c -5.28333,6.83978 -15.46241,16.65458 -21.60269,20.82959 -18.94847,12.88378 -46.22655,18.79704 -74.85567,16.22698 z m -3.14433,-45.95542 c -6.875,-4.98585 -12.5,-9.44419 -12.5,-9.90742 0,-1.79172 28.77163,-31.98989598 29.86589,-31.34668598 3.07203,1.80575098 24.63411,17.61741598 24.63411,18.06440598 0,0.61446 -12.70471,14.69472 -22.5,24.93609 l -7,7.31879 -12.5,-9.06518 z"
     id="path4138"
     inkscape:connector-curvature="0" />
</svg>
