<svg xmlns="http://www.w3.org/2000/svg" width="333.296" height="314.979" viewBox="0 0 333.29559 314.97922"><path id="om" fill="#ccc" d="M89.434 313.35c-26.857-5.832-48.307-19.661-65.08-41.957-16.435-21.847-24.5-46.34-24.352-73.956.08-14.88.787-14.186 4.464 4.381 8.351 42.17 26.83 70.067 57.565 86.902 12.139 6.649 30.734 11.598 43.576 11.598 8.518 0 20.217-2.85 27.613-6.727 15.294-8.019 23.155-22.993 22.978-43.773-.245-28.733-20.714-49.472-61.764-62.578-13.02-4.157-17.124-6.294-18.98-9.882-1.808-3.499-1.898-5.656-.411-9.92 1.639-4.702 5.34-6.078 19.169-7.126 6.722-.509 14.894-1.652 18.16-2.54 13.114-3.565 23.885-11.19 29.096-20.598 2.672-4.824 2.966-6.249 2.966-14.356 0-7.596-.384-9.753-2.467-13.83-3.09-6.05-8.652-11.13-15.913-14.535-5.145-2.412-6.674-2.633-18.12-2.609-9.962.02-14.124.49-20.5 2.31-10.047 2.87-24.514 9.701-30.828 14.557l-4.829 3.714-6.31-5.541a1197.103 1197.103 0 0 1-11.107-9.882l-4.795-4.342 6.434-5.149c8.15-6.52 21.376-13.15 35.288-17.684 40.193-13.103 72.823-5.751 89.958 20.27 6.303 9.572 8.83 16.998 9.43 27.721.637 11.342-.808 18.417-5.778 28.294-6.42 12.763-17.493 23.374-30.844 29.56l-5.215 2.416 5.063 3.115c2.785 1.713 5.771 3.115 6.636 3.115 1.74 0 31.146-6.582 33.58-7.517 1.4-.537 3.977-4.642 18.425-29.35 13.257-22.673 33.293-35.54 57.392-36.854 26.917-1.468 54.78 11.615 69.17 32.477 4.433 6.428 9.538 17.801 12.005 26.744 1.87 6.777 2.204 10.523 2.186 24.5-.02 14.574-.325 17.633-2.622 26.206-10.293 38.413-38.157 65.364-74.172 71.743-32.427 5.744-62.131-12.076-65.4-39.234-.943-7.83.073-18.958 2.17-23.772l1.5-3.443.102 6c.15 8.875 1.76 18.618 4.117 24.92 5.314 14.202 23.513 25.558 40.944 25.548 11.002-.006 25.247-4.685 36.37-11.947 24.914-16.263 38.63-41.843 38.63-72.043 0-13.19-2.1-22.656-7.43-33.478-10.418-21.157-29.588-32.274-54.01-31.32-12.332.483-18.806 3.107-27.18 11.016-7.425 7.012-9.884 10.736-18.994 28.772-11.099 21.971-15.65 26.083-34.386 31.062-4.675 1.242-8.67 2.403-8.88 2.578-.21.176 1.436 3.823 3.656 8.106 4.62 8.912 5.844 12.948 7.259 23.938 1.196 9.294-.155 23.257-3.221 33.28-6.279 20.528-21.38 35.033-42.314 40.647-9.615 2.579-29.188 2.8-40 .452zM207.08 87.22c-29.418-2.641-46.315-14.544-55.198-38.884-3.005-8.234-5.947-21.978-5.947-27.783 0-3.5.026-3.521 2.03-1.707 1.118 1.01 4.346 6.143 7.175 11.405 11.139 20.719 18.079 29.117 27.345 33.089 15.48 6.635 49.283 3.99 68.95-5.394 12.123-5.784 21.04-13.506 28.585-24.755l2.433-3.627 12.727 7.472 12.726 7.472-4.368 5.655c-5.283 6.84-15.462 16.655-21.603 20.83-18.948 12.883-46.226 18.797-74.855 16.227zm-3.145-45.956c-6.875-4.986-12.5-9.444-12.5-9.907 0-1.792 28.772-31.99 29.866-31.347 3.072 1.806 24.634 17.618 24.634 18.065 0 .614-12.704 14.694-22.5 24.936l-7 7.318-12.5-9.065z"/></svg>