<svg xmlns="http://www.w3.org/2000/svg" viewBox="0 0 164 164"><circle cx="82" cy="82" r="80" stroke="#7C85AB" stroke-width="2" fill="#ffffff"/><g fill="#7c85ab"><path d="M12.054 53.981h7.39v1.563h-2.658V62h-2.068v-6.456h-2.664V53.98zM20.508 53.981h2.068v3.056h3.05v-3.056h2.068V62h-2.068v-3.4h-3.05V62h-2.068v-8.019zM29.725 53.981h5.58v1.563h-3.513v1.493h3.304V58.6h-3.304v1.837h3.631V62h-5.698v-8.019z"/></g><g fill="#00bfff" font-weight="400"><path d="M12.204 92v-2.088H24.5q6.67 0 6.67-4.64 0-3.77-4.93-5.452l-9.164-2.436q-4.93-1.914-4.93-6.206 0-2.842 1.856-4.756 1.914-1.914 5.162-1.914h12.354v2.088h-12.18q-1.914 0-3.248 1.102-1.508 1.276-1.508 3.422 0 3.306 4.93 4.756l9.164 2.436q4.93 2.03 4.93 6.612 0 7.076-9.628 7.076H12.204zM41.399 105.224h-2.204v-26.97q0-6.148 3.828-10.208 3.886-4.118 9.57-4.118t9.512 4.118q3.886 4.06 3.886 10.208 0 6.148-3.886 10.266-3.828 4.06-9.512 4.06-4.35 0-8.584-3.48v-2.61q3.828 4.002 8.584 4.002 4.35 0 7.714-3.538 3.364-3.538 3.364-8.7 0-5.162-3.364-8.7-3.364-3.538-7.714-3.538-4.814 0-8.004 3.654-3.19 3.654-3.19 8.584v26.97zM96.768 92h-2.204V78.254q0-4.93-3.19-8.584t-8.004-3.654q-4.35 0-7.598 3.48-3.48 3.596-3.48 8.758 0 5.162 3.48 8.758 3.248 3.48 7.598 3.48 4.756 0 8.584-4.002v2.61q-4.176 3.48-8.584 3.48-5.684 0-9.57-4.06-3.828-4.118-3.828-10.266T73.8 68.046q3.886-4.118 9.57-4.118t9.512 4.118q3.886 4.06 3.886 10.208V92zM120.643 63.928v2.32h-4.002q-5.278 0-8.584 3.248-3.248 3.248-3.248 8.468t3.248 8.468q3.306 3.248 8.584 3.248h4.002V92h-4.118q-6.09 0-10.092-3.886-3.944-3.944-3.944-10.15t3.944-10.092q4.002-3.944 10.092-3.944h4.118zM131.876 83.996l-1.392-1.856 17.69-11.948q-3.306-4.176-8.874-4.176-5.162 0-8.584 3.712-3.364 3.654-3.364 8.7 0 4.93 3.422 8.526 3.48 3.538 8.526 3.538 4.93 0 8.41-3.422 3.538-3.48 3.654-8.236h2.32q-.116 5.568-4.176 9.686-4.002 4.06-9.744 4.06-6.38 0-10.556-4.06-4.176-4.118-4.176-10.208 0-5.974 4.002-10.15 4.06-4.234 10.266-4.234 3.886 0 7.192 1.856 3.132 1.798 5.046 4.872l-19.662 13.34z" /></g><g fill="#7c85ab"><path d="M68.87 95.981h2.261l1.826 2.857 1.826-2.857h2.267l-3.056 4.64V104h-2.068v-3.378L68.87 95.98zM81.234 97.334q-.945 0-1.466.699-.521.698-.521 1.966 0 1.262.52 1.96.522.698 1.467.698.95 0 1.472-.698.52-.698.52-1.96 0-1.268-.52-1.966-.521-.699-1.472-.699zm0-1.498q1.934 0 3.03 1.106 1.095 1.107 1.095 3.057 0 1.944-1.096 3.05-1.095 1.107-3.029 1.107-1.928 0-3.03-1.107-1.095-1.106-1.095-3.05 0-1.95 1.096-3.057 1.1-1.106 3.03-1.106zM94.125 103.404q-.774.376-1.606.564-.833.188-1.719.188-2.003 0-3.174-1.117-1.171-1.123-1.171-3.04 0-1.94 1.192-3.051 1.193-1.112 3.266-1.112.8 0 1.53.15.736.15 1.386.446v1.66q-.671-.382-1.337-.57-.66-.188-1.327-.188-1.235 0-1.906.693-.666.688-.666 1.972 0 1.272.644 1.965.645.693 1.832.693.322 0 .596-.037.28-.043.5-.13v-1.557h-1.263v-1.386h3.223v3.857zM100.806 102.54h-3.233l-.51 1.46h-2.079l2.97-8.019h2.466l2.97 8.019h-2.079l-.505-1.46zm-2.717-1.489h2.196l-1.095-3.19-1.101 3.19zM113.853 96.233v1.698q-.66-.296-1.29-.446-.628-.15-1.186-.15-.741 0-1.096.204-.354.204-.354.633 0 .323.236.505.242.177.87.306l.88.178q1.338.268 1.902.816.564.548.564 1.558 0 1.326-.79 1.976-.784.645-2.4.645-.763 0-1.531-.145-.768-.145-1.536-.43v-1.746q.768.409 1.482.618.72.204 1.386.204.677 0 1.037-.225.36-.226.36-.645 0-.376-.248-.58-.241-.204-.972-.365l-.8-.177q-1.203-.258-1.762-.822-.553-.564-.553-1.52 0-1.198.773-1.843.774-.644 2.224-.644.66 0 1.359.102.698.097 1.445.295zM115.244 95.981h7.39v1.563h-2.658V104h-2.068v-6.456h-2.664V95.98zM123.698 95.981h2.068v4.807q0 .994.322 1.423.328.425 1.064.425.74 0 1.063-.425.328-.43.328-1.423v-4.807h2.068v4.807q0 1.703-.854 2.535-.854.833-2.605.833-1.746 0-2.6-.833-.854-.832-.854-2.535v-4.807zM134.703 97.544v4.893h.742q1.267 0 1.933-.628.672-.629.672-1.827 0-1.192-.666-1.815t-1.94-.623h-.74zm-2.067-1.563h2.18q1.826 0 2.718.263.897.258 1.536.881.564.542.838 1.251.274.71.274 1.606 0 .908-.274 1.622-.274.71-.838 1.252-.644.623-1.547.886-.902.258-2.707.258h-2.18v-8.019zM141.766 95.981h2.068V104h-2.068v-8.019zM149.533 97.334q-.945 0-1.466.699-.521.698-.521 1.966 0 1.262.52 1.96.522.698 1.467.698.95 0 1.472-.698.52-.698.52-1.96 0-1.268-.52-1.966-.521-.699-1.472-.699zm0-1.498q1.934 0 3.03 1.106 1.095 1.107 1.095 3.057 0 1.944-1.096 3.05-1.095 1.107-3.029 1.107-1.928 0-3.03-1.107-1.095-1.106-1.095-3.05 0-1.95 1.096-3.057 1.1-1.106 3.029-1.106z"/></g></svg>